<svg xmlns="http://www.w3.org/2000/svg" width="331.997" height="217.537" viewBox="0 0 331.997 217.537">
  <g id="no-data" transform="translate(-65.62 -55.73)">
    <g id="freepik--background-complete--inject-36" transform="translate(65.62 55.73)">
      <path id="Path_1" data-name="Path 1" d="M612.18,127.56l-5.192,25.146-3.342-3.26-5.686,4.058-4.346-5.4-9.744,7.085-8.328-13.926-9.288,5.441-3.684-5.078-11.794,6.646-3.548-7.6L555.5,100.63l44.323,9.152Z" transform="translate(-285.95 -76.271)" fill="#ebebeb"/>
      <path id="Path_2" data-name="Path 2" d="M641.626,117.5l12.359,17.778L638.61,132.1Z" transform="translate(-327.755 -83.989)" fill="#dbdbdb"/>
      <path id="Path_3" data-name="Path 3" d="M598.575,195.738l-7.612,36.891L531.26,220.3l7.557-36.593,3.548,7.6,11.8-6.646,3.678,5.078,9.293-5.436,8.322,13.926,9.749-7.085,4.34,5.393,5.691-4.053Z" transform="translate(-278.644 -114.279)" fill="#ebebeb"/>
      <path id="Path_4" data-name="Path 4" d="M442.447,132.865,381.6,136.63l-4.834-78.1,45.181-2.8,16.585,13.915Z" transform="translate(-207.967 -55.73)" fill="#ebebeb"/>
      <path id="Path_5" data-name="Path 5" d="M460.05,55.73l16.585,13.915-15.668.971Z" transform="translate(-246.066 -55.73)" fill="#dbdbdb"/>
      <path id="Path_6" data-name="Path 6" d="M422.376,124.07l-.239-1.763c-.613-3.651.385-7.736,3.559-12.006,2.864-3.8,4.416-6.51,4.242-9.592-.2-3.472-2.5-5.664-6.792-5.49a12.1,12.1,0,0,0-6.754,2.5l-1.872-4.194a17.762,17.762,0,0,1,9.575-3.255c7.828-.434,11.637,4.2,11.935,9.369.26,4.628-2.138,8.105-5.186,12.169-2.8,3.705-3.716,6.76-3.32,10.216l.168,1.769Zm-.966,9.608a4.025,4.025,0,0,1,3.841-4.514,4.262,4.262,0,1,1-3.863,4.514Z" transform="translate(-225.237 -71.517)" fill="#dbdbdb"/>
      <path id="Path_7" data-name="Path 7" d="M131.562,125.772,125.443,123l-.852,1.872a1.628,1.628,0,0,1-1.394.933,7.857,7.857,0,0,0-1,.1,1.628,1.628,0,0,1-1.546-.64l-1.2-1.676-5.463,3.917,1.2,1.676a1.627,1.627,0,0,1,.109,1.666,9.925,9.925,0,0,0-.418.917,1.628,1.628,0,0,1-1.329,1.025l-2.045.2.656,6.689,2.056-.206a1.628,1.628,0,0,1,1.5.749c.087.141.179.277.277.412s.2.266.3.4a1.6,1.6,0,0,1,.228,1.655l-.857,1.888,6.125,2.778.852-1.883a1.628,1.628,0,0,1,1.4-.928,8.781,8.781,0,0,0,.993-.1,1.628,1.628,0,0,1,1.546.64l1.2,1.676,5.469-3.917-1.2-1.676a1.579,1.579,0,0,1-.109-1.666,9.734,9.734,0,0,0,.407-.911,1.6,1.6,0,0,1,1.329-1.025l2.056-.206-.662-6.689-2.056.2a1.6,1.6,0,0,1-1.492-.743c-.092-.141-.184-.277-.282-.412s-.2-.271-.3-.4a1.628,1.628,0,0,1-.228-1.666Zm-3.472,6.19a5.507,5.507,0,1,1-7.682-1.269,5.507,5.507,0,0,1,7.682,1.269Z" transform="translate(-86.609 -86.505)" fill="#ebebeb"/>
      <path id="Path_8" data-name="Path 8" d="M653.174,291.71l-4.08,2.355.722,1.248a1.085,1.085,0,0,1-.038,1.177c-.125.2-.244.4-.353.608a1.085,1.085,0,0,1-.993.618H647v4.714h1.443a1.085,1.085,0,0,1,.993.618c.109.212.228.412.353.608a1.085,1.085,0,0,1,.038,1.177l-.722,1.248,4.08,2.355.727-1.253a1.112,1.112,0,0,1,1.036-.543h.694a1.117,1.117,0,0,1,1.036.542l.727,1.259,4.074-2.355-.722-1.253a1.112,1.112,0,0,1,.043-1.172c.125-.2.244-.4.353-.608a1.085,1.085,0,0,1,.993-.618h1.443v-4.714h-1.454a1.085,1.085,0,0,1-.993-.618c-.109-.206-.228-.412-.353-.608a1.112,1.112,0,0,1-.043-1.172l.722-1.253-4.074-2.355-.727,1.237a1.112,1.112,0,0,1-1.036.543h-.694a1.128,1.128,0,0,1-1.042-.542Zm2.11,4.5a1.606,1.606,0,1,1,0-.005Z" transform="translate(-331.593 -163.688)" fill="#ebebeb"/>
      <path id="Path_9" data-name="Path 9" d="M166.771,90.725l-3.738,2.864.863,1.145a1.085,1.085,0,0,1,.114,1.166,5.679,5.679,0,0,0-.271.651,1.112,1.112,0,0,1-.906.743l-1.432.184.608,4.671,1.432-.184a1.118,1.118,0,0,1,1.085.488,6.043,6.043,0,0,0,.423.543,1.085,1.085,0,0,1,.2,1.156l-.543,1.335,4.34,1.807.543-1.335a1.112,1.112,0,0,1,.96-.678l.347-.038.342-.054a1.118,1.118,0,0,1,1.085.407l.884,1.156,3.738-2.864-.873-1.145a1.118,1.118,0,0,1-.114-1.172,6.03,6.03,0,0,0,.271-.646,1.112,1.112,0,0,1,.906-.743l1.432-.184-.608-4.671-1.432.184a1.118,1.118,0,0,1-1.085-.483,4.838,4.838,0,0,0-.429-.543,1.123,1.123,0,0,1-.163-1.134l.543-1.335-4.34-1.807-.543,1.335a1.123,1.123,0,0,1-.96.678l-.347.033-.32.011a1.118,1.118,0,0,1-1.085-.407Zm2.675,4.194a3.857,3.857,0,1,1-2.568,1.477A3.857,3.857,0,0,1,169.445,94.919Z" transform="translate(-109.438 -71.504)" fill="#ebebeb"/>
      <path id="Path_10" data-name="Path 10" d="M111.15,261.508a149.534,149.534,0,0,0-.217-15.733A201.158,201.158,0,0,0,106,213.68c-1.378-5.935-3.071-11.773-4.839-17.6-.054-.179-.336-.13-.288.054,5.463,20.561,9.944,41.774,9.635,63.149-.087,5.968-.781,11.854-1.345,17.8,0,.157.244.222.282.06A90.121,90.121,0,0,0,111.15,261.508Z" transform="translate(-81.746 -119.885)" fill="#ebebeb"/>
      <path id="Path_11" data-name="Path 11" d="M95.24,196.24s-8.268,21-6.418,25.91,5.669,5.968,5.669,5.968-5.062,7.226-1.524,14,11.393,6.456,11.935,14.138C104.886,256.3,105.32,224.174,95.24,196.24Z" transform="translate(-76.111 -120.011)" fill="#ebebeb"/>
      <path id="Path_12" data-name="Path 12" d="M108.639,246.762a.152.152,0,0,0,0-.109,192.219,192.219,0,0,0-8.018-42.235c0-.038-.081-.027-.071,0q2.458,9.223,4.34,18.521a9.152,9.152,0,0,0-3.949-2.2s-.043.033,0,.043a10.5,10.5,0,0,1,4.08,2.713c.239,1.221.477,2.436.7,3.657-1.85-2.067-4.411-3.092-6.977-4.069a.033.033,0,0,0,0,.06,16.787,16.787,0,0,1,7.145,4.79q.944,5.224,1.66,10.487a10,10,0,0,0-4.931-2.826c-.06,0-.092.071-.033.087a10.394,10.394,0,0,1,4.969,3.223h.033q.244,1.845.467,3.705a12.678,12.678,0,0,0-3.456-2.083c-.033,0-.054.038,0,.049a11.875,11.875,0,0,1,3.467,2.295h.043c.136,1.177.271,2.354.391,3.532a16.818,16.818,0,0,0-7.015-5.013.043.043,0,0,0,0,.087,18.272,18.272,0,0,1,6.912,5.322.163.163,0,0,0,.174.054c.179,1.807.342,3.613.472,5.425a.022.022,0,0,0,.043,0Q108.872,249.546,108.639,246.762Z" transform="translate(-80.765 -123.742)" fill="#fff"/>
      <path id="Path_13" data-name="Path 13" d="M100.532,229.4a10.357,10.357,0,0,0-4.969-1.552.033.033,0,0,0,0,.065,19.616,19.616,0,0,1,4.915,1.628C100.543,229.559,100.592,229.445,100.532,229.4Z" transform="translate(-79.303 -134.472)" fill="#fff"/>
      <path id="Path_14" data-name="Path 14" d="M103.423,270.6a10.34,10.34,0,0,0-3.732-1.275c-.043,0-.049.06,0,.071a14.132,14.132,0,0,1,3.689,1.291C103.429,270.719,103.472,270.632,103.423,270.6Z" transform="translate(-81.191 -153.449)" fill="#fff"/>
      <path id="Path_15" data-name="Path 15" d="M141.937,244.636A56.259,56.259,0,0,0,132.361,253a34.281,34.281,0,0,0-6.711,11.393,85.137,85.137,0,0,0-5,27.234,66.361,66.361,0,0,0,1.47,15.315.146.146,0,0,0,.288-.054,86.042,86.042,0,0,1,.152-26.773c1.421-8.68,3.651-18.131,9.174-25.189,3.006-3.846,6.754-6.868,10.46-9.993C142.387,244.761,142.137,244.5,141.937,244.636Z" transform="translate(-90.788 -142.134)" fill="#ebebeb"/>
      <path id="Path_16" data-name="Path 16" d="M122.9,285.022a51.539,51.539,0,0,1,6.977-8.919c4.139-4.139,7.622-7.08,8.165-9.814s-4.145-4.752-4.145-4.752,5.724,1.031,7.291-1.373,2.322-16.324,2.322-16.324-10.416,7.438-15.272,17.865S122.9,285.022,122.9,285.022Z" transform="translate(-91.825 -141.788)" fill="#ebebeb"/>
      <path id="Path_17" data-name="Path 17" d="M139.871,250.376c-4.384,4.3-8.794,8.892-11.393,14.55a55.791,55.791,0,0,0-2.306,5.995h0c-.13.412-.266.825-.391,1.237a.1.1,0,0,0,0,.065,118.422,118.422,0,0,0-2.962,12.863c0,.027.038.038.043,0,.45-2.17.944-4.34,1.5-6.548a.146.146,0,0,0,.065,0,9.3,9.3,0,0,1,2.713-.694c.06,0,.054-.114,0-.109a10.187,10.187,0,0,0-2.713.494c.5-1.969,1.052-3.939,1.671-5.875a28.927,28.927,0,0,1,6.179-.808v-.033a23.328,23.328,0,0,0-6.076.515c.109-.331.222-.662.331-.993a32.073,32.073,0,0,1,4.112-.7s0-.043,0-.043a20.073,20.073,0,0,0-4.025.488c.543-1.676,1.177-3.331,1.855-4.937a29.84,29.84,0,0,1,1.969-3.8,24.694,24.694,0,0,1,3.336-.6v-.054a9.044,9.044,0,0,0-3.119.309c.543-.884,1.123-1.752,1.741-2.593h0a17.544,17.544,0,0,1,7.1-.542.038.038,0,0,0,0-.071,14.9,14.9,0,0,0-6.792.19c.244-.326.5-.651.754-.971a15.424,15.424,0,0,1,4.34-.689v-.049a11.441,11.441,0,0,0-4.069.364c1.931-2.4,4.063-4.655,6.174-6.885C140.05,250.332,139.974,250.273,139.871,250.376Z" transform="translate(-91.788 -144.754)" fill="#fff"/>
      <path id="Path_18" data-name="Path 18" d="M152.2,267.826a9.137,9.137,0,0,0-2.072-.071c-.081,0-.076.141,0,.147.684,0,1.373-.033,2.056,0a.043.043,0,0,0,.016-.076Z" transform="translate(-104.255 -152.715)" fill="#fff"/>
      <path id="Path_19" data-name="Path 19" d="M137.5,292.8a9.33,9.33,0,0,0-3.212.64v.049c1.085-.255,2.132-.358,3.206-.543a.081.081,0,0,0,.005-.146Z" transform="translate(-97.036 -164.186)" fill="#fff"/>
      <path id="Path_20" data-name="Path 20" d="M134.9,284.2a7.175,7.175,0,0,0-1.362.119.043.043,0,0,0,0,.081,6.721,6.721,0,0,0,1.362-.06.071.071,0,0,0,0-.141Z" transform="translate(-96.678 -160.252)" fill="#fff"/>
      <path id="Path_21" data-name="Path 21" d="M66.415,271.882a47.28,47.28,0,0,1,9.684,4.563,28.932,28.932,0,0,1,8.067,7.66,71.72,71.72,0,0,1,10.34,20.881,55.619,55.619,0,0,1,2.344,12.738.125.125,0,0,1-.244,0,72.269,72.269,0,0,0-6.3-21.63c-3.163-6.7-7.15-13.829-13.248-18.266a58.652,58.652,0,0,0-10.774-5.669C66.084,272.093,66.22,271.817,66.415,271.882Z" transform="translate(-65.878 -154.612)" fill="#ebebeb"/>
      <path id="Path_22" data-name="Path 22" d="M91.818,300.018a43.551,43.551,0,0,0-7.709-5.6c-4.308-2.392-7.807-3.966-8.876-6.054s2.257-4.8,2.257-4.8-4.394,2.17-6.217.57S65.62,271.46,65.62,271.46s10.15,3.608,16.482,10.926S91.818,300.018,91.818,300.018Z" transform="translate(-65.62 -154.423)" fill="#ebebeb"/>
      <path id="Path_23" data-name="Path 23" d="M95.12,299.811C90.048,290.284,83.272,281.664,74,276h0a46.8,46.8,0,0,1,6.792,5.317,10.785,10.785,0,0,0-5.458,1.15.033.033,0,0,0,0,.06,14.919,14.919,0,0,1,5.615-.949.136.136,0,0,0,.065,0c.331.309.651.629.977.949a17.072,17.072,0,0,0-2.919.385s0,.043,0,.043a14.647,14.647,0,0,1,3.076-.255,63.421,63.421,0,0,1,4.79,5.425,4.8,4.8,0,0,0-2.04.146.038.038,0,1,0,0,.076,10.8,10.8,0,0,1,2.17-.027c.277.353.543.705.83,1.085a19.46,19.46,0,0,0-6.158.6c-.033,0,0,.054,0,.049a24.766,24.766,0,0,1,6.364-.488c.26.342.5.694.76,1.042a13.324,13.324,0,0,0-3.667.423.038.038,0,0,0,0,.071,14.154,14.154,0,0,1,3.8-.293c1.085,1.5,2.138,3.044,3.141,4.6a3.45,3.45,0,0,0-1.628.1v.043a7.193,7.193,0,0,1,1.741.087q1.356,2.1,2.615,4.259C95,300.028,95.191,299.936,95.12,299.811Z" transform="translate(-69.454 -156.5)" fill="#fff"/>
      <path id="Path_24" data-name="Path 24" d="M95.891,305.3a7.785,7.785,0,0,0-2.951.363v.043a22.146,22.146,0,0,1,2.935-.3C95.946,305.407,95.962,305.31,95.891,305.3Z" transform="translate(-78.119 -169.898)" fill="#fff"/>
      <path id="Path_25" data-name="Path 25" d="M80.886,283.906a4.987,4.987,0,0,0-1.362.076c-.049,0-.033.087,0,.081.45-.049.89-.033,1.335-.043a.06.06,0,0,0,.027-.114Z" transform="translate(-71.967 -160.11)" fill="#fff"/>
      <path id="Path_26" data-name="Path 26" d="M118.72,356.826H95.81l3.266-23.93.835-6.136h14.708l.835,6.136Z" transform="translate(-79.432 -179.722)" fill="#dbdbdb"/>
      <path id="Path_27" data-name="Path 27" d="M118.209,332.9H101.83l.835-6.136h14.708Z" transform="translate(-82.186 -179.722)" fill="#c7c7c7"/>
      <rect id="Rectangle_1" data-name="Rectangle 1" width="18.912" height="5.197" transform="translate(18.375 144.911)" fill="#dbdbdb"/>
    </g>
    <g id="freepik--Floor--inject-36" transform="translate(67.432 232.562)">
      <path id="Path_28" data-name="Path 28" d="M68.96,381.951l41.237-.13,41.236-.049,82.473-.092,82.473.092,41.237.049,41.236.13-41.236.136-41.237.043-82.473.092-82.473-.092-41.236-.049Z" transform="translate(-68.96 -381.68)" fill="#263238"/>
    </g>
    <g id="freepik--Shadow--inject-36" transform="translate(77.903 239.176)">
      <ellipse id="Ellipse_1" data-name="Ellipse 1" cx="155.56" cy="17.046" rx="155.56" ry="17.046" transform="translate(0)" fill="#ebebeb"/>
    </g>
    <g id="freepik--Character--inject-36" transform="translate(91.03 72.441)">
      <path id="Path_29" data-name="Path 29" d="M271.994,389.69c-1.264.429-37.509.543-38.9-.315-.543-.326-.852-5.6-1.085-11.995-.049-1.378-.087-2.8-.119-4.248L229,353.8l24.234-.157,2.284,19.341-.092,4.253s13.9,6.158,15.321,7.275S273.258,389.261,271.994,389.69Z" transform="translate(-165.774 -208.731)" fill="#eb9481"/>
      <path id="Path_30" data-name="Path 30" d="M274.451,406c-1.264.429-37.509.542-38.9-.315-.64-.4-.987-8.111-1.183-16.243l23.578-.152-.092,4.253s13.9,6.158,15.321,7.275S275.715,405.571,274.451,406Z" transform="translate(-168.231 -225.04)" fill="#fff"/>
      <path id="Path_31" data-name="Path 31" d="M274.533,409.586c-1.264.429-37.509.543-38.9-.315-.543-.326-.852-5.6-1.085-11.995l23.366-.146s13.9,6.158,15.321,7.275S275.8,409.158,274.533,409.586Z" transform="translate(-168.313 -228.627)" fill="#a6a6a6"/>
      <path id="Path_32" data-name="Path 32" d="M276.373,417.366c-6.076-.13-30.6-.071-36.614.266-.049,0-.049.033,0,.038,6.022.255,30.544,0,36.614-.206C276.5,417.458,276.5,417.366,276.373,417.366Z" transform="translate(-170.679 -237.855)" fill="#263238"/>
      <path id="Path_33" data-name="Path 33" d="M297.395,408.149a4.882,4.882,0,0,0-3.629,1.5,4.7,4.7,0,0,0-1.345,3.255c0,.038.065.038.071,0a5.642,5.642,0,0,1,4.883-4.666.045.045,0,0,0,.022-.087Z" transform="translate(-194.788 -233.667)" fill="#263238"/>
      <path id="Path_34" data-name="Path 34" d="M276.292,398.229c-2.43-.027-5.246.841-6.754,2.837-.054.076.054.157.125.119a33.763,33.763,0,0,1,6.673-2.658.152.152,0,0,0-.043-.3Z" transform="translate(-184.313 -229.129)" fill="#263238"/>
      <path id="Path_35" data-name="Path 35" d="M279.77,399.56c-2.436,0-5.252.846-6.754,2.837-.06.081.049.163.125.125a33.414,33.414,0,0,1,6.667-2.664.152.152,0,0,0-.038-.3Z" transform="translate(-185.903 -229.738)" fill="#263238"/>
      <path id="Path_36" data-name="Path 36" d="M283.232,400.9c-2.43,0-5.246.841-6.754,2.837-.054.076.054.157.125.119a33.764,33.764,0,0,1,6.673-2.658.152.152,0,0,0-.043-.3Z" transform="translate(-187.488 -230.351)" fill="#263238"/>
      <path id="Path_37" data-name="Path 37" d="M286.7,402.239c-2.436-.027-5.252.841-6.754,2.837-.06.076.054.157.125.119a33.638,33.638,0,0,1,6.673-2.658.152.152,0,0,0-.043-.3Z" transform="translate(-189.073 -230.964)" fill="#263238"/>
      <path id="Path_38" data-name="Path 38" d="M240.894,407.26c-2.713,0-2.713,4.259,0,4.242S243.629,407.244,240.894,407.26Z" transform="translate(-170.285 -233.261)" fill="#263238"/>
      <path id="Path_39" data-name="Path 39" d="M282,385.894c-1.232-1.02-2.783,0-3.537,1.047a12.792,12.792,0,0,0-2.17,6.228.07.07,0,0,0,.076.071.293.293,0,0,0,.439.19c1.725-1.2,3.722-2.273,5.029-3.971C282.578,388.471,283.185,386.844,282,385.894Zm-2.962,5.176c-.835.613-1.7,1.183-2.512,1.828.434-1.215.808-2.441,1.362-3.613a13.6,13.6,0,0,1,.879-1.628c.543-.808,2.908-2.848,3.157-.206C282.062,388.9,280.028,390.343,279.035,391.07Z" transform="translate(-187.408 -223.293)" fill="#263238"/>
      <path id="Path_40" data-name="Path 40" d="M262.934,397.81c2.116.315,4.3-.293,6.38-.624a.3.3,0,0,0,.179-.445.065.065,0,0,0,0-.1,12.749,12.749,0,0,0-5.892-2.968c-1.28-.244-3.092.108-3.255,1.7C260.151,396.866,261.7,397.615,262.934,397.81Zm-1.476-1.378c-1.628-2.083,1.481-2.262,2.414-2.045a13.875,13.875,0,0,1,1.779.575,37.746,37.746,0,0,1,3.478,1.655c-1.031.1-2.045.288-3.071.429-1.226.163-3.689.532-4.6-.613Z" transform="translate(-180.107 -227.012)" fill="#263238"/>
      <path id="Path_41" data-name="Path 41" d="M163.32,189.2s28.14,47.871,28.894,51.235c1.156,5.165,7.281,56.166,7.281,56.166l29.3-.542s-5.045-44.969-9.825-59.785c-3.44-10.671-28.276-46.065-28.276-46.065Z" transform="translate(-135.726 -133.502)" fill="#37474f"/>
      <path id="Path_42" data-name="Path 42" d="M258.23,377.886c-4.2-.033-19.107-.2-24.706.32-.043,0-.038.076,0,.081,1.926.277,20.5-.152,24.7-.288a.06.06,0,1,0,.005-.114Z" transform="translate(-167.83 -219.799)" fill="#263238"/>
      <path id="Path_43" data-name="Path 43" d="M172.085,197.28c1.845,2.892,3.8,5.724,5.675,8.593s3.765,5.74,5.626,8.6q5.566,8.68,10.85,17.474a53.507,53.507,0,0,1,4.394,8.566,52.488,52.488,0,0,1,2.468,9.19c.575,3.141.955,6.315,1.307,9.489q.543,5.062,1.134,10.129,1.156,10.367,2.317,20.735c.092.846.184,1.693.271,2.544a.115.115,0,0,1-.228,0c-.863-6.863-1.579-13.753-2.36-20.616q-.586-5.138-1.166-10.27c-.363-3.185-.711-6.375-1.2-9.537a62.391,62.391,0,0,0-2.062-9.223,44.3,44.3,0,0,0-4.047-8.951c-3.391-5.854-6.982-11.6-10.574-17.36s-7.281-11.561-11.067-17.247c-.467-.7-.939-1.4-1.427-2.089C171.955,197.274,172.052,197.225,172.085,197.28Z" transform="translate(-139.69 -137.187)" fill="#263238"/>
      <path id="Path_44" data-name="Path 44" d="M149.274,385.846c-1.335-.081-35.806-14.046-36.761-15.369a.456.456,0,0,1-.054-.255c0-1.188,2.392-5.333,4.389-10.78.125-.347,1.014-1.964,2.246-4.139,3.423-5.962,9.391-16.232,9.391-16.232l22.531,8.951-10.785,16.14-1.676,3.906S149.127,379,150.017,380.545,150.6,385.922,149.274,385.846Z" transform="translate(-112.457 -202.065)" fill="#eb9481"/>
      <path id="Path_45" data-name="Path 45" d="M149.274,399.534c-1.335-.081-35.806-14.046-36.761-15.369a.456.456,0,0,1-.054-.255c0-1.188,2.392-5.333,4.389-10.78.125-.347,1.014-1.964,2.246-4.139l21.158,8.859-1.676,3.906s10.574,10.932,11.463,12.478S150.6,399.609,149.274,399.534Z" transform="translate(-112.457 -215.753)" fill="#fff"/>
      <path id="Path_46" data-name="Path 46" d="M149.275,403.024c-1.335-.081-35.806-14.046-36.761-15.369-.369-.5,1.172-5.208,4.34-11.035l21.7,8.631s10.574,10.921,11.469,12.478S150.6,403.1,149.275,403.024Z" transform="translate(-112.459 -219.244)" fill="#a6a6a6"/>
      <path id="Path_47" data-name="Path 47" d="M151.683,411.077c-5.582-2.4-28.336-11.545-34.037-13.487-.049,0-.06,0,0,.033,5.485,2.5,28.308,11.458,34.016,13.563C151.77,411.213,151.8,411.126,151.683,411.077Z" transform="translate(-114.812 -228.837)" fill="#263238"/>
      <path id="Path_48" data-name="Path 48" d="M173.231,411.372a4.883,4.883,0,0,0-3.928,0,4.72,4.72,0,0,0-2.463,2.506c0,.033.049.06.065.027a5.648,5.648,0,0,1,6.3-2.49A.038.038,0,0,0,173.231,411.372Z" transform="translate(-137.337 -234.954)" fill="#263238"/>
      <path id="Path_49" data-name="Path 49" d="M157.985,394.517c-2.241-.939-5.181-1.188-7.324.1-.081.049,0,.163.071.157a33.821,33.821,0,0,1,7.183.038.152.152,0,0,0,.071-.293Z" transform="translate(-129.92 -227.071)" fill="#263238"/>
      <path id="Path_50" data-name="Path 50" d="M160.7,397.057c-2.241-.939-5.181-1.188-7.324.1-.081.049,0,.163.071.157a33.47,33.47,0,0,1,7.183.038.152.152,0,0,0,.071-.293Z" transform="translate(-131.159 -228.234)" fill="#263238"/>
      <path id="Path_51" data-name="Path 51" d="M163.413,399.6c-2.246-.939-5.186-1.188-7.324.1-.087.049,0,.163.065.157a33.467,33.467,0,0,1,7.183.038.152.152,0,0,0,.076-.293Z" transform="translate(-132.402 -229.396)" fill="#263238"/>
      <path id="Path_52" data-name="Path 52" d="M166.123,402.136c-2.246-.939-5.181-1.188-7.324.092-.087.054,0,.168.065.163a33.469,33.469,0,0,1,7.183.038.152.152,0,0,0,.076-.293Z" transform="translate(-133.641 -230.557)" fill="#263238"/>
      <path id="Path_53" data-name="Path 53" d="M121.871,388.632c-2.534-1.009-4.107,2.935-1.562,3.944S124.432,389.641,121.871,388.632Z" transform="translate(-115.457 -224.664)" fill="#263238"/>
      <path id="Path_54" data-name="Path 54" d="M166.377,385.063c-.765-1.405-2.572-1.058-3.673-.358a12.76,12.76,0,0,0-4.34,4.953.065.065,0,0,0,.043.092c0,.179.119.391.331.347,2.056-.472,4.308-.716,6.152-1.8C165.949,387.667,167.1,386.393,166.377,385.063Zm-4.693,3.684c-1,.255-2.013.461-3.006.754a37.938,37.938,0,0,1,2.609-2.837,13.75,13.75,0,0,1,1.438-1.194c.787-.543,3.76-1.546,3,1C165.309,387.874,162.883,388.443,161.685,388.747Z" transform="translate(-133.456 -222.663)" fill="#263238"/>
      <path id="Path_55" data-name="Path 55" d="M145.908,388.2c1.845,1.085,4.1,1.34,6.147,1.817.212.049.353-.163.336-.347a.06.06,0,0,0,.043-.092,12.76,12.76,0,0,0-4.34-4.964c-1.085-.705-2.9-1.058-3.673.342S144.828,387.57,145.908,388.2Zm-.846-1.834c-.754-2.544,2.213-1.535,3-.987a13.2,13.2,0,0,1,1.432,1.2,37.976,37.976,0,0,1,2.6,2.843c-.993-.293-2-.5-3.006-.76C147.877,388.34,145.474,387.8,145.061,386.371Z" transform="translate(-126.967 -222.62)" fill="#263238"/>
      <path id="Path_56" data-name="Path 56" d="M145.611,286.362,120.39,276.179s31.271-45.978,31.5-49.4c.206-3.027-13.53-29.4-14.067-37.092a22.943,22.943,0,0,1,7.8-18.706l26.014,11.062a22.739,22.739,0,0,1-7.053,6.836s13.34,30.489,12.581,39.864S145.611,286.362,145.611,286.362Z" transform="translate(-116.086 -125.166)" fill="#37474f"/>
      <path id="Path_57" data-name="Path 57" d="M150.671,367.427c-3.646-1.568-2.577-1.172-6.244-2.713-1.79-.749-13.563-5.648-15.375-6.054-.038,0-.065.054-.027.076,1.568.96,13.438,5.653,15.245,6.369,3.695,1.454,2.647,1,6.358,2.409a.054.054,0,1,0,.043-.087Z" transform="translate(-120.028 -211.027)" fill="#263238"/>
      <path id="Path_58" data-name="Path 58" d="M202.983,202.936a49.1,49.1,0,0,0-7.921,2.572.083.083,0,0,0,.054.157c2.658-.776,5.36-1.5,7.975-2.42C203.293,203.175,203.19,202.893,202.983,202.936Z" transform="translate(-150.222 -139.784)" fill="#263238"/>
      <path id="Path_59" data-name="Path 59" d="M203.149,200.881a11.745,11.745,0,0,0-.667,1.394,3.207,3.207,0,0,0-.342,1.166c0,.081.109.1.157.049a4.074,4.074,0,0,0,.651-1.085c.222-.429.45-.852.662-1.291A.258.258,0,1,0,203.149,200.881Z" transform="translate(-153.486 -138.781)" fill="#263238"/>
      <path id="Path_60" data-name="Path 60" d="M203.933,194.383c.163-.4.32-.8.488-1.2s.38-.814.543-1.237c0-.065.13,0,.1.049-.163.4-.266.825-.391,1.237s-.266.825-.4,1.237a20.071,20.071,0,0,1-.9,2.268,2.875,2.875,0,0,0,1.248-.217,2.24,2.24,0,0,0,.884-1.085c.228-.445.439-.9.673-1.345a8.99,8.99,0,0,0,.722-1.514c0-.065.13,0,.1.049a17.6,17.6,0,0,1-1.383,3.206c-.244.4-.434.814-.879.966a3.678,3.678,0,0,1-1.481.1c-.065,0-.141,0-.119-.1q.333-1.229.787-2.42Z" transform="translate(-153.945 -134.746)" fill="#263238"/>
      <path id="Path_61" data-name="Path 61" d="M202.478,205.776c.928,1.958,1.741,3.912,2.6,5.865s1.628,3.841,2.4,5.783c1.552,3.917,2.94,7.91,4.161,11.935.6,2,1.161,4.009,1.66,6.038a43.4,43.4,0,0,1,1.2,6.163,16.276,16.276,0,0,1-.543,6.185,36.175,36.175,0,0,1-2.295,5.767c-.57,1.172-.76,1.014-.488.423.776-1.682,2.81-6.776,2.664-11.056a31.91,31.91,0,0,0-.944-6.071q-.711-3.076-1.6-6.1c-1.156-3.982-2.528-7.883-3.939-11.778-.792-2.17-1.628-4.34-2.441-6.51s-1.628-4.167-2.539-6.564C202.359,205.754,202.451,205.716,202.478,205.776Z" transform="translate(-153.596 -141.072)" fill="#263238"/>
      <path id="Path_62" data-name="Path 62" d="M167.211,189.29c.45-.168,1.085.109,1.541.184a13.172,13.172,0,0,0,1.785.179,12.9,12.9,0,0,0,1.774-.06,3.8,3.8,0,0,0,1.7-.45,8.643,8.643,0,0,0,2.17-2.295,13.351,13.351,0,0,0,1.687-2.962c0-.065.114,0,.092.043-.19.6-.331,1.21-.543,1.8a10.936,10.936,0,0,1-.835,1.6,6.841,6.841,0,0,1-2.246,2.55,6.684,6.684,0,0,1-3.559.494,13.906,13.906,0,0,1-2.013-.266c-.477-.1-1.28-.179-1.584-.6a.146.146,0,0,1,.033-.222Z" transform="translate(-137.474 -131.058)" fill="#263238"/>
      <path id="Path_63" data-name="Path 63" d="M133.646,273.2q6.217-9.418,12.207-18.988t11.816-19.286a26.816,26.816,0,0,0,2.593-4.8,8.378,8.378,0,0,0-.3-5.49,93.112,93.112,0,0,0-3.874-9.765c-1.454-3.206-3.022-6.358-4.563-9.521a97.928,97.928,0,0,1-4.34-9.586,16.6,16.6,0,0,1-.678-9.684,28.089,28.089,0,0,1,4.573-8.87c.5-.716,1.015-1.427,1.519-2.17.038-.054.119,0,.081.065a37.833,37.833,0,0,0-5.376,9.158,15.814,15.814,0,0,0-1.042,5.127,16.6,16.6,0,0,0,.819,5.246,69.075,69.075,0,0,0,4.134,9.521c1.5,3.1,3.109,6.315,4.59,9.51a101.8,101.8,0,0,1,4.069,9.868,13.686,13.686,0,0,1,1.042,4.655A10.125,10.125,0,0,1,159.171,233q-5.7,9.643-11.648,19.1c-3.96,6.315-8.035,12.63-12.158,18.879l-1.562,2.36C133.722,273.432,133.581,273.318,133.646,273.2Z" transform="translate(-122.143 -127.014)" fill="#263238"/>
      <path id="Path_64" data-name="Path 64" d="M216.966,134.009c2.349,5.154,14.214,12.255,19.769,13.02,3.993.543,16.134.738,20.3.1,4.883-.749,1.15-13.9-1.731-13.563-7.921.922-14.648,1.953-16.764,1.953-2.582,0-16.552-4.481-18.234-5.116C216.179,128.872,215.636,131.085,216.966,134.009Z" transform="translate(-159.973 -106.375)" fill="#eb9481"/>
      <path id="Path_65" data-name="Path 65" d="M216.253,134.975c2.973,4.4,12.852,11.594,12.852,11.594l1.373-3.038,4.541-10.047s-9.076-2.848-15.049-4.15a13.087,13.087,0,0,0-2.138-.3C214.018,128.823,213.687,131.178,216.253,134.975Z" transform="translate(-159.184 -105.969)" fill="#fff"/>
      <path id="Path_66" data-name="Path 66" d="M216.253,134.983c2.973,4.4,12.852,11.594,12.852,11.594l1.373-3.038c-3.684-4.28-9.375-10.763-12.646-14.491C214.018,128.831,213.687,131.186,216.253,134.983Z" transform="translate(-159.184 -105.977)" fill="#263238"/>
      <path id="Path_67" data-name="Path 67" d="M238.054,148.4c.754-1.85,4.107-9.3,4.942-10.85.054-.109.141-.1.092,0a109.436,109.436,0,0,1-4.959,10.85C238.108,148.46,238.021,148.438,238.054,148.4Z" transform="translate(-169.913 -109.835)" fill="#263238"/>
      <path id="Path_68" data-name="Path 68" d="M285.49,136.205c4.818-.629,10.78-1.709,15.831.434a2.713,2.713,0,0,1,1.351,1.156c2.279.922,2.528,2.273,2.528,2.273a4.514,4.514,0,0,1,1.926,2.93s2.669,1.085,2.262,2.832c-.445,1.931-4.1,0-6.76.157-6.1.38-14.648,2.62-16.411,2.9Z" transform="translate(-191.617 -108.875)" fill="#eb9481"/>
      <path id="Path_69" data-name="Path 69" d="M304.725,147.086a28.1,28.1,0,0,1,11.111,1.166.049.049,0,1,0,.033-.092,20.773,20.773,0,0,0-11.143-1.128C304.638,147.021,304.638,147.091,304.725,147.086Z" transform="translate(-200.387 -114.07)" fill="#263238"/>
      <path id="Path_70" data-name="Path 70" d="M303.307,140.54a28.362,28.362,0,0,1,9.988,1.883v-.033a18.668,18.668,0,0,0-10-1.937C303.2,140.464,303.187,140.535,303.307,140.54Z" transform="translate(-199.729 -111.17)" fill="#263238"/>
      <path id="Path_71" data-name="Path 71" d="M302.614,136.89a29.156,29.156,0,0,1,7.834,1.53v-.033a17.877,17.877,0,0,0-7.85-1.628C302.495,136.8,302.5,136.89,302.614,136.89Z" transform="translate(-199.41 -109.511)" fill="#263238"/>
      <path id="Path_72" data-name="Path 72" d="M295.917,156.64c-.776.363-.586.77.9,1.112s7.639.445,7.422,2.593-8.9,1.877-11.328,1.118a40.73,40.73,0,0,1-6.076-2.843C288.55,158.333,292.586,157.242,295.917,156.64Z" transform="translate(-192.23 -118.606)" fill="#eb9481"/>
      <path id="Path_73" data-name="Path 73" d="M227.862,152.581c-.038.928-.125,1.872-.255,2.81a.114.114,0,0,1,.038-.1c.179-.488.358-.987.575-1.459h.049a7.825,7.825,0,0,1-.467,1.508c-.1.233-.19.461-.293.689-.065.418-.141.83-.222,1.242-.163.776-.9,4.074-1.085,4.633-.033.114-.174.087-.163-.043.038-.608.651-4.042.776-4.823a42.164,42.164,0,0,1,.971-4.476C227.814,152.532,227.868,152.554,227.862,152.581Z" transform="translate(-164.419 -116.733)" fill="#263238"/>
      <path id="Path_74" data-name="Path 74" d="M192.7,164.9c-1.449.743-3.315,1.9-11.724.244-.543-.109-1.052-.239-1.584-.4-7.883-2.365-17.36-11.637-17.876-12.293,0,0,12.527-20.306,28.547-26.692,1.98-.787,5.257.732,7.053,2.626.646.678,2.051,5.664,1.514,9.7S194.147,164.155,192.7,164.9Z" transform="translate(-134.903 -104.382)" fill="#fff"/>
      <path id="Path_75" data-name="Path 75" d="M216.607,148.32a6.152,6.152,0,0,1-.353,2.528A5.886,5.886,0,0,1,216.607,148.32Z" transform="translate(-159.934 -114.8)" fill="#fff"/>
      <path id="Path_76" data-name="Path 76" d="M206.536,173.81a5.6,5.6,0,0,1-.043,1.28,5.318,5.318,0,0,1-.309,1.248,5.343,5.343,0,0,1,.043-1.286A5.626,5.626,0,0,1,206.536,173.81Z" transform="translate(-155.326 -126.461)" fill="#fff"/>
      <path id="Path_77" data-name="Path 77" d="M189.427,154.54a6.158,6.158,0,0,1-.353,2.534A5.93,5.93,0,0,1,189.427,154.54Z" transform="translate(-147.5 -117.645)" fill="#fff"/>
      <path id="Path_78" data-name="Path 78" d="M223.2,172.51a5.637,5.637,0,0,1-.043,1.286,5.317,5.317,0,0,1-.309,1.248,5.344,5.344,0,0,1,.043-1.286,5.6,5.6,0,0,1,.309-1.248Z" transform="translate(-162.948 -125.866)" fill="#fff"/>
      <path id="Path_79" data-name="Path 79" d="M201.54,151.223a5.6,5.6,0,0,1,1.28.038,5.333,5.333,0,0,1,1.248.315,6.114,6.114,0,0,1-2.528-.353Z" transform="translate(-153.211 -116.118)" fill="#fff"/>
      <path id="Path_80" data-name="Path 80" d="M182.12,169.637a6.152,6.152,0,0,1,2.528.353A5.886,5.886,0,0,1,182.12,169.637Z" transform="translate(-144.327 -124.545)" fill="#fff"/>
      <path id="Path_81" data-name="Path 81" d="M205,189.567a6.114,6.114,0,0,1,2.528.353,5.919,5.919,0,0,1-2.528-.353Z" transform="translate(-154.794 -133.662)" fill="#fff"/>
      <path id="Path_82" data-name="Path 82" d="M176.13,182.327a6.152,6.152,0,0,1,2.528.353A5.918,5.918,0,0,1,176.13,182.327Z" transform="translate(-141.587 -130.35)" fill="#fff"/>
      <path id="Path_83" data-name="Path 83" d="M216.77,130.387a6.152,6.152,0,0,1,2.528.353A6.152,6.152,0,0,1,216.77,130.387Z" transform="translate(-160.179 -106.589)" fill="#fff"/>
      <path id="Path_84" data-name="Path 84" d="M209.418,136.78a5.29,5.29,0,0,1-.933.879,5.762,5.762,0,0,1-1.085.662,5.518,5.518,0,0,1,.922-.879A5.719,5.719,0,0,1,209.418,136.78Z" transform="translate(-155.892 -109.52)" fill="#fff"/>
      <path id="Path_85" data-name="Path 85" d="M178.624,154.91a5.485,5.485,0,0,1-.939.873,5.115,5.115,0,0,1-1.085.662,5.713,5.713,0,0,1,.939-.873,5.252,5.252,0,0,1,1.085-.662Z" transform="translate(-141.802 -117.814)" fill="#fff"/>
      <path id="Path_86" data-name="Path 86" d="M217.074,163.09a5.517,5.517,0,0,1-.939.879,5.251,5.251,0,0,1-1.085.662,5.517,5.517,0,0,1,.939-.879A5.6,5.6,0,0,1,217.074,163.09Z" transform="translate(-159.392 -121.557)" fill="#fff"/>
      <path id="Path_87" data-name="Path 87" d="M192.174,178.77a5.515,5.515,0,0,1-.939.879,5.348,5.348,0,0,1-1.085.662,5.519,5.519,0,0,1,.939-.879A5.6,5.6,0,0,1,192.174,178.77Z" transform="translate(-148.001 -128.73)" fill="#fff"/>
      <path id="Path_88" data-name="Path 88" d="M226.614,141.67a5.518,5.518,0,0,1-.939.879,5.762,5.762,0,0,1-1.085.662,5.517,5.517,0,0,1,.939-.879A5.349,5.349,0,0,1,226.614,141.67Z" transform="translate(-163.756 -111.757)" fill="#fff"/>
      <path id="Path_89" data-name="Path 89" d="M226.5,158.134a5.517,5.517,0,0,1-.879-.939,5.213,5.213,0,0,1-.662-1.085,5.289,5.289,0,0,1,.879.933A5.929,5.929,0,0,1,226.5,158.134Z" transform="translate(-163.926 -118.363)" fill="#fff"/>
      <path id="Path_90" data-name="Path 90" d="M171,170.654a5.517,5.517,0,0,1-.879-.939,5.6,5.6,0,0,1-.662-1.085,5.517,5.517,0,0,1,.879.939,5.349,5.349,0,0,1,.662,1.085Z" transform="translate(-138.535 -124.091)" fill="#fff"/>
      <path id="Path_91" data-name="Path 91" d="M219.751,185.548a5.29,5.29,0,0,1-.879-.933,5.762,5.762,0,0,1-.662-1.085,5.517,5.517,0,0,1,.879.939,5.452,5.452,0,0,1,.662,1.08Z" transform="translate(-160.838 -130.908)" fill="#fff"/>
      <path id="Path_92" data-name="Path 92" d="M195.321,143.1a5.485,5.485,0,0,1-.879-.933,5.93,5.93,0,0,1-.662-1.085,5.289,5.289,0,0,1,.879.933,5.931,5.931,0,0,1,.662,1.085Z" transform="translate(-149.661 -111.487)" fill="#fff"/>
      <path id="Path_93" data-name="Path 93" d="M195.751,194.024a5.518,5.518,0,0,1-.879-.939A5.718,5.718,0,0,1,194.21,192a5.289,5.289,0,0,1,.879.933,5.652,5.652,0,0,1,.662,1.09Z" transform="translate(-149.858 -134.783)" fill="#fff"/>
      <path id="Path_94" data-name="Path 94" d="M199.905,163.984a5.713,5.713,0,0,1-.873-.939,5.116,5.116,0,0,1-.662-1.085,5.486,5.486,0,0,1,.873.939A5.251,5.251,0,0,1,199.905,163.984Z" transform="translate(-151.761 -121.04)" fill="#fff"/>
      <path id="Path_95" data-name="Path 95" d="M218.18,128.152c-2.045-.38-3.966-4.606-4.21-7.449,0-.2.955-1.741,2.045-3.678.662-1.177,1.362-2.506,1.921-3.765.114-.255.781.608.781.608l1.454,1.085,4.8,3.684a21.885,21.885,0,0,0-2.892,4.487,2.712,2.712,0,0,0-.174.543.66.66,0,0,0,0,.092C221.609,124.832,220.149,128.516,218.18,128.152Z" transform="translate(-158.898 -98.739)" fill="#eb9481"/>
      <path id="Path_96" data-name="Path 96" d="M224.992,124.323a.66.66,0,0,0,0,.092,5.376,5.376,0,0,1-.83-.32c-5.257-2.463-2.94-9.5-2.94-9.5l2.062,1.02,4.8,3.684a21.884,21.884,0,0,0-2.892,4.487A2.712,2.712,0,0,0,224.992,124.323Z" transform="translate(-161.983 -99.369)" fill="#263238"/>
      <path id="Path_97" data-name="Path 97" d="M244.42,95.58a5.482,5.482,0,0,1,2.414,4.237,11.3,11.3,0,0,1-1.313,5.463C245.293,105.378,244.42,95.58,244.42,95.58Z" transform="translate(-172.828 -90.672)" fill="#263238"/>
      <path id="Path_98" data-name="Path 98" d="M221.591,95.019c-1.443,2.848-1.367,11.827.434,14.138,2.615,3.353,7.649,4.508,10.693,1.194,2.946-3.212,2.642-14.908.543-17.089C230.206,90.039,223.728,90.8,221.591,95.019Z" transform="translate(-161.924 -88.701)" fill="#eb9481"/>
      <path id="Path_99" data-name="Path 99" d="M222.87,124h0" transform="translate(-162.97 -103.673)" fill="none" stroke="#f5a79e" stroke-linecap="round" stroke-linejoin="round" stroke-width="0"/>
      <path id="Path_100" data-name="Path 100" d="M236.034,111.43s-.049.033-.043.054c.033.613-.033,1.318-.58,1.535v.033C236.088,112.944,236.164,112.005,236.034,111.43Z" transform="translate(-168.706 -97.923)" fill="#263238"/>
      <path id="Path_101" data-name="Path 101" d="M234.884,110.279c-.987-.054-1.02,1.921-.1,1.969S235.708,110.322,234.884,110.279Z" transform="translate(-168.115 -97.396)" fill="#263238"/>
      <path id="Path_102" data-name="Path 102" d="M242.689,111.39a.05.05,0,0,1,.049.054c-.033.613.038,1.318.591,1.53v.033C242.645,112.9,242.564,111.965,242.689,111.39Z" transform="translate(-172.014 -97.905)" fill="#263238"/>
      <path id="Path_103" data-name="Path 103" d="M243.26,110.229c.982-.06,1.031,1.915.119,1.969S242.436,110.278,243.26,110.229Z" transform="translate(-172.027 -97.373)" fill="#263238"/>
      <path id="Path_104" data-name="Path 104" d="M233.932,106.339a7.948,7.948,0,0,0,.765-.26,1.3,1.3,0,0,0,.738-.412.418.418,0,0,0-.06-.5,1.036,1.036,0,0,0-1.042-.125,1.535,1.535,0,0,0-.89.646.45.45,0,0,0,.488.656Z" transform="translate(-167.782 -94.959)" fill="#263238"/>
      <path id="Path_105" data-name="Path 105" d="M243.644,107.988a7.95,7.95,0,0,1-.781-.217,1.3,1.3,0,0,1-.754-.374.407.407,0,0,1,.033-.5,1.025,1.025,0,0,1,1.031-.179,1.519,1.519,0,0,1,.922.6.445.445,0,0,1-.45.678Z" transform="translate(-171.738 -95.734)" fill="#263238"/>
      <path id="Path_106" data-name="Path 106" d="M233.924,122.095c.146.146.288.342.51.363a1.628,1.628,0,0,0,.662-.141s.038,0,0,.033a.819.819,0,0,1-.781.32.656.656,0,0,1-.477-.543.046.046,0,0,1,.087-.033Z" transform="translate(-167.986 -102.788)" fill="#263238"/>
      <path id="Path_107" data-name="Path 107" d="M238.319,112.314s.027.911,0,1.34a8.941,8.941,0,0,0-2.5.087c-.2.043-.174-.114.049-.217a3.667,3.667,0,0,1,2.127-.282c.043-.114-.071-1.411,0-1.405a3.625,3.625,0,0,1,.944.326c0-1.91-.3-3.8-.277-5.707a.057.057,0,0,1,.114,0,30.728,30.728,0,0,1,.542,6.13C239.322,112.819,238.481,112.4,238.319,112.314Z" transform="translate(-168.832 -95.623)" fill="#263238"/>
      <path id="Path_108" data-name="Path 108" d="M236.687,119.163a2.713,2.713,0,0,1-1.139,1.362c-.819.331-1.085-.412-.26-1.085A2.647,2.647,0,0,1,236.687,119.163Z" transform="translate(-168.421 -101.457)" fill="#263238"/>
      <path id="Path_109" data-name="Path 109" d="M235.828,120.748a1.085,1.085,0,0,1-.288.168c-.754.3-1.052-.3-.445-.906C235.508,120.043,235.98,120.194,235.828,120.748Z" transform="translate(-168.414 -101.848)" fill="#ff99ba"/>
      <path id="Path_110" data-name="Path 110" d="M220.393,100.528c.993.3,2.132-2.68,2.458-3.8.282-1.009.608-4.215.656-4.438s4.34,2.837,6.825,2.11,4.172-2.978,4.21-4.025-3.071-3.705-5.756-3.841-6.326,3.255-6.326,3.255a12.477,12.477,0,0,0,1.194-1.595,2.952,2.952,0,0,0-2.1,1.812s.347-1.557.217-1.584-1.481,1.3-1.177,2.311a5.285,5.285,0,0,0-1.7,2.832C218.749,95.049,219.226,100.17,220.393,100.528Z" transform="translate(-161.138 -86.533)" fill="#263238"/>
      <path id="Path_111" data-name="Path 111" d="M235.208,97.8a8.252,8.252,0,0,1-2.36.846,5.6,5.6,0,0,1-2.713-.434,8.333,8.333,0,0,1-2.365-1.4c-.624-.51-1.183-1.134-1.85-1.59-.168-.119-.358.125-.255.277a8.962,8.962,0,0,0,4.535,3.342,5.17,5.17,0,0,0,5-1.02S235.219,97.8,235.208,97.8Z" transform="translate(-164.235 -90.494)" fill="#263238"/>
      <path id="Path_112" data-name="Path 112" d="M220.522,109.584s-1.541-3.125-2.93-2.62-.543,4.828.884,5.62a1.546,1.546,0,0,0,2.17-.51Z" transform="translate(-160.231 -95.854)" fill="#eb9481"/>
      <path id="Path_113" data-name="Path 113" d="M218.688,109.28s-.033,0,0,.043a3.88,3.88,0,0,1,1.628,2.713.852.852,0,0,0-1.226-.423c-.033,0,0,.06,0,.06a.949.949,0,0,1,.982.488,4.584,4.584,0,0,1,.369.911c.033.1.212.076.2-.038h0C220.869,111.683,220.109,109.638,218.688,109.28Z" transform="translate(-161.05 -96.939)" fill="#263238"/>
      <path id="Path_114" data-name="Path 114" d="M204.741,135.7c-1.085,6.147,5.577,26.854,9.847,30.723,6.353,5.751,18.1,9.532,22.357,10.763,1.855.543,6.988-12.516,5.11-13.378-4.02-1.828-16.509-5.734-17.7-6.711s-8.349-11.322-11.539-17.279C208.549,131.8,205.278,132.588,204.741,135.7Z" transform="translate(-154.622 -108.013)" fill="#eb9481"/>
      <path id="Path_115" data-name="Path 115" d="M261.515,187.25s5.544,1.416,9.12,2.506c2,.613,5.327,1.964,6.592,3.081,1.888,1.676,8.713,9.879,6.76,11.577-1.769,1.541-6.738-6.255-6.738-6.255s5.707,7.422,3.255,8.881-6.939-8.094-6.939-8.094,5.691,7.758,2.908,8.859c-2.1.83-6.619-7.6-6.619-7.6s4.85,6.7,2.713,7.649c-2.355,1.052-7-6.467-7-6.467-5.816,1.5-9.223-.163-11.463-1.628C253.573,199.408,261.515,187.25,261.515,187.25Z" transform="translate(-177.245 -132.609)" fill="#eb9481"/>
      <path id="Path_116" data-name="Path 116" d="M293.419,202.382c.705.846,1.421,1.7,2.045,2.609s1.215,1.839,1.752,2.8a18.78,18.78,0,0,1,1.736,3.939,40.379,40.379,0,0,0-3.743-6.575c-.624-.906-1.2-1.845-1.823-2.751C293.37,202.382,293.4,202.361,293.419,202.382Z" transform="translate(-195.228 -139.528)" fill="#263238"/>
      <path id="Path_117" data-name="Path 117" d="M287.313,206.434a23.212,23.212,0,0,1,4.7,6.884c.043.1,0,.092-.071,0-.76-1.177-3.841-5.734-4.655-6.868C287.27,206.434,287.3,206.418,287.313,206.434Z" transform="translate(-192.437 -141.383)" fill="#263238"/>
      <path id="Path_118" data-name="Path 118" d="M281.415,208.983a17,17,0,0,1,3.483,5.425c.038.1-.038.081-.1,0-1.123-1.828-1.991-3.255-3.445-5.376C281.334,208.983,281.383,208.934,281.415,208.983Z" transform="translate(-189.723 -142.543)" fill="#263238"/>
      <path id="Path_119" data-name="Path 119" d="M210,134.94c-4.953-7-7.915-4.411-6.922,3.2a122.73,122.73,0,0,0,3.423,15.586l12.478-6.054S213.153,139.426,210,134.94Z" transform="translate(-153.828 -106.806)" fill="#fff"/>
      <path id="Path_120" data-name="Path 120" d="M221.544,143.47a5.578,5.578,0,0,1,.353,1.232,5.637,5.637,0,0,1,.081,1.286,5.609,5.609,0,0,1-.347-1.237,5.3,5.3,0,0,1-.087-1.28Z" transform="translate(-162.359 -112.581)" fill="#fff"/>
      <path id="Path_121" data-name="Path 121" d="M207.92,150.949a5.968,5.968,0,0,1,2.512-.434,5.566,5.566,0,0,1-1.232.347A5.317,5.317,0,0,1,207.92,150.949Z" transform="translate(-156.13 -115.801)" fill="#fff"/>
      <path id="Path_122" data-name="Path 122" d="M207.27,131.24a6.054,6.054,0,0,1-1.47,2.089,6.055,6.055,0,0,1,1.47-2.089Z" transform="translate(-155.16 -106.986)" fill="#fff"/>
      <path id="Path_123" data-name="Path 123" d="M226.76,157.35a5.663,5.663,0,0,1-.624,1.123,5.485,5.485,0,0,1-.846.966,6.054,6.054,0,0,1,1.47-2.089Z" transform="translate(-164.077 -118.931)" fill="#fff"/>
      <path id="Path_124" data-name="Path 124" d="M210.239,163.94a6.055,6.055,0,0,1-2.089-1.47A6.055,6.055,0,0,1,210.239,163.94Z" transform="translate(-156.235 -121.273)" fill="#fff"/>
      <path id="Path_125" data-name="Path 125" d="M218.968,142.28c.667.917,1.356,1.812,2.04,2.713q-.26-.684-.456-1.383h.033c.136.358.293.711.423,1.085l.2.543a.975.975,0,0,1,.043.114c.542.7,1.085,1.4,1.584,2.116.613.857,1.2,1.725,1.8,2.593s1.2,1.948,1.845,2.821c.06.076-1.085.543-1.21.6s-.19-.043-.071-.081,1.031-.6,1.042-.608c-.6-.879-1.286-1.687-1.91-2.539s-1.242-1.7-1.845-2.566c-1.221-1.758-2.338-3.581-3.553-5.344Z" transform="translate(-161.167 -112.036)" fill="#263238"/>
      <path id="Path_126" data-name="Path 126" d="M203.7,151.469a11.67,11.67,0,0,1,.543,1.112l.206.472c-.288-1.351-.543-2.713-.841-4.063h0c.575,2.17,1.156,4.389,1.687,6.592.5,2.1,1.118,4.232,1.411,6.38a7.08,7.08,0,0,1,1.172-.4,5.784,5.784,0,0,1-1.291.624,67.724,67.724,0,0,1-1.628-6.64c-.136-.608-.26-1.215-.391-1.823-.141-.369-.309-.722-.477-1.085s-.32-.77-.472-1.156C203.653,151.464,203.691,151.442,203.7,151.469Z" transform="translate(-154.158 -115.106)" fill="#263238"/>
      <path id="Path_127" data-name="Path 127" d="M209.872,164.559c1.736-.977,8.989-4.731,10.612-5.425.114-.049.174,0,.06.076a109.355,109.355,0,0,1-10.633,5.425C209.866,164.645,209.823,164.586,209.872,164.559Z" transform="translate(-157.013 -119.738)" fill="#263238"/>
    </g>
    <g id="freepik--Folder--inject-36" transform="translate(153.269 110.301)">
      <path id="Path_128" data-name="Path 128" d="M436.933,317.747H271.64l23.9-135.547H460.831Z" transform="translate(-247.52 -168.16)" fill="#fff"/>
      <path id="Path_129" data-name="Path 129" d="M372.263,156.32H318.169l-2.479,14.04h57.892Z" transform="translate(-267.672 -156.32)" fill="#fff"/>
      <g id="Group_1" data-name="Group 1" transform="translate(24.12)" opacity="0.1">
        <path id="Path_130" data-name="Path 130" d="M436.933,317.747H271.64l23.9-135.547H460.831Z" transform="translate(-271.64 -168.16)"/>
        <path id="Path_131" data-name="Path 131" d="M372.263,156.32H318.169l-2.479,14.04h57.892Z" transform="translate(-291.792 -156.32)"/>
      </g>
      <path id="Path_132" data-name="Path 132" d="M309.271,162.9a10.4,10.4,0,0,1,0-4.72,10.4,10.4,0,0,1,0,4.72Z" transform="translate(-264.611 -157.171)" fill="#263238"/>
      <path id="Path_133" data-name="Path 133" d="M298.645,166a9.224,9.224,0,0,1-1.416-1.91,9.413,9.413,0,0,1-.949-2.17,8.994,8.994,0,0,1,1.416,1.9A9.553,9.553,0,0,1,298.645,166Z" transform="translate(-258.792 -158.882)" fill="#263238"/>
      <path id="Path_134" data-name="Path 134" d="M290.8,174.1a10.405,10.405,0,0,1-4.085-2.36,9.31,9.31,0,0,1,2.17.944A9.538,9.538,0,0,1,290.8,174.1Z" transform="translate(-254.414 -163.374)" fill="#263238"/>
      <path id="Path_135" data-name="Path 135" d="M288.02,184.821a10.4,10.4,0,0,1-4.72,0A10.4,10.4,0,0,1,288.02,184.821Z" transform="translate(-252.854 -169.235)" fill="#263238"/>
      <path id="Path_136" data-name="Path 136" d="M291.16,193.91a9.57,9.57,0,0,1-1.91,1.416,9.308,9.308,0,0,1-2.17.944,9.223,9.223,0,0,1,1.91-1.416A9.114,9.114,0,0,1,291.16,193.91Z" transform="translate(-254.583 -173.517)" fill="#263238"/>
      <path id="Path_137" data-name="Path 137" d="M299.25,200.3a10.379,10.379,0,0,1-2.36,4.091,9.129,9.129,0,0,1,.949-2.17A9.392,9.392,0,0,1,299.25,200.3Z" transform="translate(-259.071 -176.44)" fill="#263238"/>
      <path id="Path_138" data-name="Path 138" d="M309.97,202.51a9.466,9.466,0,0,1,.271,2.36,9.223,9.223,0,0,1-.271,2.36,8.99,8.99,0,0,1-.271-2.36A9.468,9.468,0,0,1,309.97,202.51Z" transform="translate(-264.93 -177.451)" fill="#263238"/>
      <path id="Path_139" data-name="Path 139" d="M319.06,199.991a9.223,9.223,0,0,1,1.416,1.91,9.115,9.115,0,0,1,.944,2.17,10.378,10.378,0,0,1-2.36-4.091Z" transform="translate(-269.214 -176.294)" fill="#263238"/>
      <path id="Path_140" data-name="Path 140" d="M325.45,193.3a9.114,9.114,0,0,1,2.17.944,9.223,9.223,0,0,1,1.91,1.416,9.114,9.114,0,0,1-2.17-.944,9.223,9.223,0,0,1-1.91-1.416Z" transform="translate(-272.137 -173.238)" fill="#263238"/>
      <path id="Path_141" data-name="Path 141" d="M327.66,184.111a10.427,10.427,0,0,1,4.725,0A10.427,10.427,0,0,1,327.66,184.111Z" transform="translate(-273.148 -168.91)" fill="#263238"/>
      <path id="Path_142" data-name="Path 142" d="M325.091,173.49a9.39,9.39,0,0,1,1.91-1.411,8.918,8.918,0,0,1,2.17-.949,10.378,10.378,0,0,1-4.091,2.36Z" transform="translate(-271.968 -163.095)" fill="#263238"/>
      <path id="Path_143" data-name="Path 143" d="M318.45,165.65a9.536,9.536,0,0,1,.944-2.17,9.223,9.223,0,0,1,1.416-1.91,9.113,9.113,0,0,1-.944,2.17,9.223,9.223,0,0,1-1.416,1.91Z" transform="translate(-268.935 -158.722)" fill="#263238"/>
      <path id="Path_144" data-name="Path 144" d="M416.349,321.9H250.7L227.18,191.27H392.831Z" transform="translate(-227.18 -172.309)" fill="#fff"/>
      <circle id="Ellipse_2" data-name="Ellipse 2" cx="6.885" cy="6.885" r="6.885" transform="translate(50.519 85.044)" fill="#263238"/>
      <circle id="Ellipse_3" data-name="Ellipse 3" cx="6.885" cy="6.885" r="6.885" transform="translate(104.944 85.044)" fill="#263238"/>
      <path id="Path_145" data-name="Path 145" d="M383.6,332.909l-.38-.722c-.033-.065-3.591-6.64-10.747-6.64-6.51,0-8.138,6.19-8.181,6.456l-.2.787-1.579-.38.19-.792c0-.076,1.942-7.7,9.765-7.7,8.138,0,12.028,7.2,12.19,7.514l.38.716Z" transform="translate(-289.096 -232.995)" fill="#263238"/>
    </g>
    <g id="freepik--Fly--inject-36" transform="translate(331.387 70.951)">
      <path id="Path_146" data-name="Path 146" d="M555.614,324.132l-.114-.543c.353-.076.7-.157,1.047-.25l.136.543C556.314,323.975,555.972,324.056,555.614,324.132Z" transform="translate(-555.5 -193.378)" fill="#263238"/>
      <path id="Path_147" data-name="Path 147" d="M560.255,220.553l-.174-.51c.678-.233,1.356-.488,2.013-.765l.212.5C561.639,220.059,560.95,220.32,560.255,220.553Zm4.042-1.731-.244-.477a21.486,21.486,0,0,0,1.872-1.085l.282.461A13.877,13.877,0,0,1,564.3,218.822Zm3.732-2.295-.32-.439c.586-.429,1.15-.879,1.682-1.34l.358.407c-.57.494-1.112.955-1.725,1.394Zm3.309-2.886-.4-.374c.5-.543.971-1.085,1.405-1.628l.429.331c-.45.6-.933,1.156-1.427,1.693Zm2.685-3.472-.461-.288a15.778,15.778,0,0,0,1-1.888l.5.222a18.312,18.312,0,0,1-1.042,1.975Zm1.8-4.025-.542-.152a14.187,14.187,0,0,0,.439-2.078l.542.071a13.924,13.924,0,0,1-.445,2.181Zm.6-4.34h-.543v-.157c0-.656-.038-1.324-.1-1.98l.543-.054a19.68,19.68,0,0,1,.109,2.034Zm-.977-4.248a21.32,21.32,0,0,0-.542-2.072l.542-.163a18.172,18.172,0,0,1,.543,2.121Zm-1.286-4.085c-.26-.64-.542-1.3-.89-1.958l.488-.244c.331.673.635,1.345.9,2Zm-1.9-3.868c-.336-.591-.705-1.215-1.085-1.855l.461-.288c.4.646.77,1.275,1.085,1.877Zm-2.268-3.684c-.4-.6-.8-1.2-1.21-1.8l.45-.3c.412.6.814,1.2,1.21,1.812Zm-2.441-3.591c-.407-.6-.819-1.2-1.221-1.8l.45-.3c.4.6.808,1.2,1.215,1.79Zm-2.425-3.613c-.4-.608-.781-1.226-1.161-1.845l.461-.282c.38.618.765,1.226,1.156,1.834Zm-2.262-3.727c-.369-.656-.711-1.307-1.02-1.931l.488-.244c.3.618.646,1.259,1,1.91Zm-1.926-3.906c-.288-.678-.542-1.367-.781-2.04l.543-.174c.228.656.483,1.335.765,2Zm-1.411-4.139c-.179-.705-.336-1.427-.456-2.17l.542-.087c.119.694.266,1.4.445,2.094Zm-.727-4.34c-.054-.667-.081-1.34-.081-2.013v-.179h.543v.174a15.9,15.9,0,0,0,.081,1.969Zm.542-4.34-.542-.054c0-.146.027-.3.043-.456.065-.58.146-1.161.244-1.714l.542.092c-.092.543-.174,1.112-.239,1.682a1.116,1.116,0,0,1-.022.467Zm.754-4.221-.542-.146c.2-.716.434-1.416.694-2.083l.5.2a19.837,19.837,0,0,0-.629,2.051Zm27.034-3.163a6.783,6.783,0,0,1-.928-.087c-.423-.06-.846-.13-1.264-.212l.109-.543c.4.076.819.146,1.232.206.293.038.591.065.879.081Zm2.23-.168-.114-.543a6.26,6.26,0,0,0,1.931-.749l.282.461a6.754,6.754,0,0,1-2.072.846Zm-27.7-.646-.483-.255a19.255,19.255,0,0,1,1.145-1.877l.445.309a17.708,17.708,0,0,0-1.08,1.839Zm21.158-.033a20.89,20.89,0,0,1-2.062-.776l.222-.5a18.5,18.5,0,0,0,2,.754Zm10.308-1.693-.45-.3a3.8,3.8,0,0,0,.662-1.893l.542.038a4.34,4.34,0,0,1-.738,2.175Zm-14.322-.081a19.894,19.894,0,0,1-1.839-1.21l.32-.434a19.139,19.139,0,0,0,1.79,1.172Zm-14.7-1.693-.4-.363a18.359,18.359,0,0,1,1.568-1.546l.358.407a18.114,18.114,0,0,0-1.508,1.519Zm11.17-.917a20.077,20.077,0,0,1-1.535-1.579l.407-.358a19.971,19.971,0,0,0,1.492,1.535Zm17.659-1.47a5.3,5.3,0,0,0-1.264-1.628l.358-.407a5.859,5.859,0,0,1,1.394,1.785Zm-25.617-.429L567,143.3a20.926,20.926,0,0,1,1.883-1.145l.255.477a20.492,20.492,0,0,0-1.812,1.128Zm5.067-1.411c-.206-.293-.407-.591-.6-.9l-.705.277-.206-.5.624-.25c-.1-.163-.2-.326-.288-.488l.472-.266c.109.19.217.38.331.543q.456-.163.928-.309l.157.543c-.266.081-.543.168-.792.26a6.6,6.6,0,0,0,.543.776Zm17.539-.933a11.556,11.556,0,0,0-1.628-.662l-.358-.114.157-.543.369.119a11.721,11.721,0,0,1,1.693.689Zm-14.746-.971-.114-.543c.7-.157,1.427-.288,2.17-.391l.081.543c-.716.114-1.427.25-2.121.407Zm10.688-.293c-.678-.119-1.394-.212-2.127-.277l.043-.543c.754.065,1.486.157,2.17.282Zm-6.429-.315-.038-.543c.646-.038,1.291-.06,1.931-.06h.266v.543h-.26c-.613.016-1.253.033-1.883.076Zm-9.169-1.3c-.293-.662-.543-1.351-.787-2.051l.543-.168c.228.684.483,1.356.765,2Zm-1.373-4.167c-.163-.7-.3-1.427-.4-2.17l.543-.076c.1.716.233,1.427.391,2.116Zm-.608-4.34c-.027-.488-.043-.987-.043-1.486v-.705h.543v.694c0,.488,0,.982.038,1.454Zm.646-4.34-.543-.054c.076-.716.179-1.449.3-2.17l.542.092a20.649,20.649,0,0,0-.32,2.143Zm.743-4.237-.543-.13c.174-.7.374-1.405.6-2.11l.542.168c-.244.711-.445,1.4-.613,2.083Zm1.3-4.107-.5-.2c.266-.678.543-1.356.873-2.013l.488.239a21.25,21.25,0,0,0-.873,2Zm1.866-3.868-.472-.277c.369-.624.765-1.248,1.177-1.845l.445.309c-.423.6-.808,1.2-1.166,1.823Zm2.447-3.532-.423-.342c.456-.543.944-1.118,1.449-1.628l.391.374a19.943,19.943,0,0,0-1.432,1.606Zm2.951-3.125-.364-.4c.543-.483,1.085-.96,1.666-1.421l.336.429c-.581.461-1.134.933-1.655,1.405Zm3.369-2.68-.309-.45c.591-.407,1.21-.808,1.839-1.188l.277.461c-.629.385-1.215.781-1.823,1.188Zm3.684-2.241-.255-.477c.64-.342,1.3-.667,1.964-.971l.228.494c-.689.309-1.324.635-1.953.966Zm3.922-1.8-.2-.51c.684-.266,1.373-.543,2.056-.743l.174.543c-.689.206-1.373.456-2.045.722Z" transform="translate(-556.973 -90.673)" fill="#263238"/>
      <path id="Path_148" data-name="Path 148" d="M622.526,97.952l-.136-.543c.673-.174,1.085-.25,1.085-.25l.1.543S623.182,97.784,622.526,97.952Z" transform="translate(-586.101 -89.904)" fill="#263238"/>
      <path id="Path_149" data-name="Path 149" d="M632.667,90.085c-1.383-4.286-10.65-2.745-8.843,2.859S634.05,94.377,632.667,90.085Z" transform="translate(-586.651 -85.542)" fill="#263238"/>
      <path id="Path_150" data-name="Path 150" d="M614.729,86.614c.071-1.883,2.685-3.331,6.385-2.664a20.636,20.636,0,0,1,7.177,3.163,20.971,20.971,0,0,1-7.389,2.62C617.165,90.141,614.658,88.492,614.729,86.614Z" transform="translate(-582.596 -83.786)" fill="#ebebeb"/>
      <path id="Path_151" data-name="Path 151" d="M630.031,89.543c-1.92,0-3.836-.054-5.751-.114s-3.836-.157-5.751-.309c1.921,0,3.841.049,5.756.108S628.122,89.386,630.031,89.543Z" transform="translate(-584.335 -86.226)" fill="#263238"/>
      <path id="Path_152" data-name="Path 152" d="M621.58,85.91a16.14,16.14,0,0,1,3.065,1.915,14.453,14.453,0,0,1-1.584-.868A15.534,15.534,0,0,1,621.58,85.91Z" transform="translate(-585.731 -84.757)" fill="#263238"/>
      <path id="Path_153" data-name="Path 153" d="M628.174,89.57A17.614,17.614,0,0,1,625,91.621a17.617,17.617,0,0,1,3.19-2.051Z" transform="translate(-587.295 -86.432)" fill="#263238"/>
      <path id="Path_154" data-name="Path 154" d="M631.88,87.62a3.928,3.928,0,0,1,1.4,1.128,3.716,3.716,0,0,1-.765-.483,3.971,3.971,0,0,1-.635-.646Z" transform="translate(-590.443 -85.54)" fill="#263238"/>
      <path id="Path_155" data-name="Path 155" d="M620.85,102.518c1.156,1.486,4.123,1.128,6.733-1.573a20.881,20.881,0,0,0,3.993-6.765,20.9,20.9,0,0,0-7.536,2.17C620.78,98.195,619.689,101.027,620.85,102.518Z" transform="translate(-585.191 -88.541)" fill="#ebebeb"/>
      <path id="Path_156" data-name="Path 156" d="M633.342,94.18c-1.562,1.085-3.081,2.289-4.606,3.456s-3.016,2.371-4.476,3.613c1.563-1.085,3.081-2.284,4.6-3.45S631.861,95.428,633.342,94.18Z" transform="translate(-586.957 -88.541)" fill="#263238"/>
      <path id="Path_157" data-name="Path 157" d="M628.58,105.182a15.457,15.457,0,0,0,.776-1.628,14.489,14.489,0,0,0,.586-1.714,15.086,15.086,0,0,0-.776,1.628,15.462,15.462,0,0,0-.586,1.714Z" transform="translate(-588.933 -92.045)" fill="#263238"/>
      <path id="Path_158" data-name="Path 158" d="M630.8,99.618a17.936,17.936,0,0,0-3.8.2,15.842,15.842,0,0,0,1.9,0A16.877,16.877,0,0,0,630.8,99.618Z" transform="translate(-588.21 -91.017)" fill="#263238"/>
      <path id="Path_159" data-name="Path 159" d="M635.93,99.161a3.879,3.879,0,0,0,.336-.846,4.062,4.062,0,0,0,.141-.9A4.041,4.041,0,0,0,635.93,99.161Z" transform="translate(-592.296 -90.023)" fill="#263238"/>
      <path id="Path_160" data-name="Path 160" d="M638.524,89.482a1.628,1.628,0,1,1,1.047-2.045A1.628,1.628,0,0,1,638.524,89.482Z" transform="translate(-592.508 -84.939)" fill="#455a64"/>
      <path id="Path_161" data-name="Path 161" d="M640.365,95.191a1.628,1.628,0,1,1,1.047-2.051,1.628,1.628,0,0,1-1.047,2.051Z" transform="translate(-593.35 -87.55)" fill="#455a64"/>
    </g>
    <g id="freepik--speech-bubble--inject-36" transform="translate(170.748 62.138)">
      <path id="Path_162" data-name="Path 162" d="M289.555,82.743a13.519,13.519,0,0,1-22.59,8.555l-6.765.993,3.385-5.848a13.519,13.519,0,1,1,25.97-3.7Z" transform="translate(-259.766 -67.673)" fill="#fff"/>
      <path id="Path_163" data-name="Path 163" d="M289.189,82.612a13.563,13.563,0,0,1-2.713,6.852,12,12,0,0,1-2.653,2.62,13.162,13.162,0,0,1-3.255,1.817,13.308,13.308,0,0,1-3.64.868,13.563,13.563,0,0,1-1.877.038,12.033,12.033,0,0,1-1.872-.2,13.65,13.65,0,0,1-6.689-3.3l.157.049-6.754,1.036-.494.076.25-.434,3.364-5.859v.233a13.661,13.661,0,0,1,.836-12.049,13.588,13.588,0,0,1,21.332-2.94A13.563,13.563,0,0,1,289.189,82.612Zm0,0a13.373,13.373,0,0,0-15.331-14.648,13.226,13.226,0,0,0-5.582,2.2,13.937,13.937,0,0,0-4.047,4.416,13.357,13.357,0,0,0-1.72,5.718,13.492,13.492,0,0,0,.955,5.935l.049.119-.065.114-3.407,5.837-.239-.358L266.572,91h.092l.065.06a13.324,13.324,0,0,0,6.478,3.315,11.518,11.518,0,0,0,1.834.222,13.162,13.162,0,0,0,1.85,0,13.562,13.562,0,0,0,3.613-.8,12.717,12.717,0,0,0,3.255-1.758,12.359,12.359,0,0,0,2.658-2.588A13.563,13.563,0,0,0,289.189,82.612Z" transform="translate(-259.4 -67.542)" fill="#263238"/>
      <path id="Path_164" data-name="Path 164" d="M277.338,92.57a1.313,1.313,0,0,1,1.324-1.389,1.389,1.389,0,0,1,0,2.778,1.313,1.313,0,0,1-1.324-1.389Zm.543-3.206L277.566,78.6h2.17l-.315,10.763Z" transform="translate(-267.605 -72.601)" fill="#fff"/>
      <path id="Path_165" data-name="Path 165" d="M286.848,92.57a1.313,1.313,0,0,1,1.318-1.389,1.389,1.389,0,0,1,0,2.778,1.313,1.313,0,0,1-1.318-1.389Zm.543-3.206-.3-10.763h2.17l-.315,10.763Z" transform="translate(-271.956 -72.601)" fill="#fff"/>
      <path id="Path_166" data-name="Path 166" d="M296.348,92.57a1.313,1.313,0,0,1,1.324-1.389,1.389,1.389,0,0,1,0,2.778,1.313,1.313,0,0,1-1.324-1.389Zm.543-3.206L296.576,78.6h2.17l-.309,10.763Z" transform="translate(-276.302 -72.601)" fill="#fff"/>
    </g>
  </g>
</svg>
